<svg xmlns="http://www.w3.org/2000/svg" viewBox="0 0 52.9 59.67"><defs><style>.cls-1{fill:#dbb47e}</style></defs><g id="Layer_2" data-name="Layer 2"><g id="Layer_1-2" data-name="Layer 1"><g id="Group"><path id="Fill-44-Copy" class="cls-1" d="M6.87 7.56c1.15 3 2.25 5.43 3 8 2.71 8.88 8.66 14.57 17.16 17.77 8.78 3.3 14.51 9.16 16.34 18.61a4.19 4.19 0 01-2 4.9c-6 4.09-12.21 3.47-18 .24C10.93 50.13 3.14 39.5.44 25.5c-1.29-6.69.1-12.88 6.43-17.94"/><path id="Fill-46-Copy" class="cls-1" d="M48.48 49.83c-.94-2.77-1.69-4.82-2.33-6.91-2-6.5-6-11.43-12.58-13.26C21.3 26.22 15.4 17.39 11.84 6c-.85-2.71 0-3.77 2.21-4.68a17.91 17.91 0 0114.59.43C42.93 8.29 51 19.57 52.75 35.11a19 19 0 01-4.27 14.72"/></g></g></g></svg>