<svg id="Layer_1" data-name="Layer 1" xmlns="http://www.w3.org/2000/svg" viewBox="0 0 568.91 193.83">
  <defs>
    <style>
      .cls-1, .cls-2 {
        fill: #fdc249;
      }

      .cls-2 {
        stroke: #fdc249;
        stroke-miterlimit: 10;
        stroke-width: 3px;
      }
    </style>
  </defs>
  <title>logo</title>
  <g>
    <path class="cls-1" d="M101.89,64.85a17.25,17.25,0,0,1,.17,1.94v1c0,2.15-.38,3.23-1.13,3.23a5,5,0,0,1-2-.24,6.81,6.81,0,0,1-1.38-1.7,24.14,24.14,0,0,0-8.15-8.32,21.67,21.67,0,0,0-10.74-2.5,17.94,17.94,0,0,0-9.86,2.5q-3.87,2.51-3.87,6.38,0,3.24,3.79,5.41t14.14,4.61Q90.1,78.9,94,80.28a26.5,26.5,0,0,1,7,3.63q7.91,5.66,7.91,16.64a25.1,25.1,0,0,1-2.18,10.25,29.13,29.13,0,0,1-5.9,8.72,27.42,27.42,0,0,1-8.64,6,25.5,25.5,0,0,1-10.41,2.18,40.32,40.32,0,0,1-11.15-1.62,45.32,45.32,0,0,1-10.82-4.68,2.79,2.79,0,0,0-1.29-.48c-.76,0-1.83,1.29-3.23,3.87a5.42,5.42,0,0,1-.89,1.46,3.45,3.45,0,0,1-1.37.16,4.93,4.93,0,0,1-2.59-.41c-.32-.27-.38-1-.16-2.18V105.88c0-1.3.32-1.94,1-1.94a5.84,5.84,0,0,1,2.67.48,3.89,3.89,0,0,1,1.53,1.94A18.16,18.16,0,0,0,59,112a28.42,28.42,0,0,0,5.82,4.85,33.67,33.67,0,0,0,7,3.39,22.1,22.1,0,0,0,7.27,1.29,19.92,19.92,0,0,0,6.06-.89,19.6,19.6,0,0,0,5-2.34,12.48,12.48,0,0,0,3.47-3.39,7.42,7.42,0,0,0,1.29-4.2,6.11,6.11,0,0,0-1.21-3.63,9,9,0,0,0-3-2.67c-.65-.32-1.21-.59-1.7-.81a18.72,18.72,0,0,0-2.1-.72q-1.36-.4-3.87-1t-7-1.94q-13.24-3.39-19-8.8T51.34,76.8a23.39,23.39,0,0,1,1.94-9.44,25.28,25.28,0,0,1,5.33-7.84,25,25,0,0,1,7.91-5.33,24.41,24.41,0,0,1,9.69-1.94,40.17,40.17,0,0,1,16.16,3.23,3.71,3.71,0,0,0,1.29.49q1.29,0,3.71-4a1.91,1.91,0,0,1,1.94-1.13c1.18,0,1.91.19,2.18.57a5.93,5.93,0,0,1,.4,2.82Z"/>
    <path class="cls-1" d="M174.41,116.37q-12.91,11.31-28.1,11.31-11.79,0-17.93-6.62a12.71,12.71,0,0,1-3.07-6,49.81,49.81,0,0,1-.8-10.34V62.91c0-1.5-.36-2.5-1.05-3s-2.13-.73-4.28-.73h-3.07c-1.62,0-2.56-.13-2.83-.4s-.4-1.16-.4-2.67c0-1.72.48-2.58,1.45-2.58h.81a7.28,7.28,0,0,1,1.45.16c2.8.11,5.82.21,9,.32s5.86.16,7.91.16h4.36c.86,0,2,0,3.31-.08l5.57-.24,3.23-.16c-.1,3.45-.19,8.21-.24,14.29s-.08,14.24-.08,24.47c0,4.09,0,7.46.08,10.09s.16,4.82.32,6.55a25.05,25.05,0,0,0,.65,4,8.55,8.55,0,0,0,1.05,2.43q2.1,3.39,6.95,3.39a16.46,16.46,0,0,0,6.7-1.54,16.1,16.1,0,0,0,5.73-4.12,10.15,10.15,0,0,0,2.18-3.39,15.42,15.42,0,0,0,.57-4.84l-.33-43.13a2.56,2.56,0,0,0-1.45-2.34,16.9,16.9,0,0,0-5.49-.56H165a3.5,3.5,0,0,1-1.13.16,1.4,1.4,0,0,1-1.45-.73,8.68,8.68,0,0,1-.32-3c0-1.18.48-1.77,1.45-1.77h.65c.32,0,1.29.11,2.9.32.65,0,1.67,0,3.07.08l4.44.16,4.53.16c1.45.06,2.55.09,3.31.09h2.1c.64,0,1.48,0,2.5-.09s2.42-.1,4.2-.16,4.22-.18,7.35-.4c-.11,1.51-.16,3-.16,4.36v7q0,2.75.16,6.94v42.64c0,1.83.16,2.93.48,3.31s1.35.56,3.07.56h4.68a15.38,15.38,0,0,1,1.94-.16h1.13c1.08,0,1.75.16,2,.49a4,4,0,0,1,.41,2.26,9.21,9.21,0,0,1-.25,2.83c-.16.37-.56.56-1.21.56h-.8a4.64,4.64,0,0,1-1.14-.16q-2.1-.17-4.92-.24c-1.89-.06-3.74-.08-5.57-.08q-4,0-7,.16a41.44,41.44,0,0,0-5.49.64,40.84,40.84,0,0,0-4.76,1.22,50.56,50.56,0,0,0-4.85,1.85,5.28,5.28,0,0,1-1.29.33c-.54,0-.81-.33-.81-1v-.65a28,28,0,0,0,.16-3.39v-6.95Z"/>
    <path class="cls-1" d="M279.23,60.33a29.33,29.33,0,0,1,7.91-6.78,17.71,17.71,0,0,1,8.57-2.1,9.07,9.07,0,0,1,6.7,2.9,9.79,9.79,0,0,1,.32,13.41,8.08,8.08,0,0,1-6.22,2.75,7,7,0,0,1-4.76-1.78,5.42,5.42,0,0,1-2-4.2,6.36,6.36,0,0,1,.48-2.1,4.42,4.42,0,0,0,.33-1v-.65c0-1.5-.81-2.26-2.43-2.26A5,5,0,0,0,284.72,60a4.14,4.14,0,0,0-1.61,3.07,6.22,6.22,0,0,0,.8,2.58c.87,1.83,1.56,3.34,2.1,4.52a25.12,25.12,0,0,1,1.22,3.15,13.11,13.11,0,0,1,.48,2.59c.05.8.08,1.8.08,3q0,13.09-12.92,20.35a33.06,33.06,0,0,1-9.93,3.88,61.44,61.44,0,0,1-12.68,1.13c-1.83,0-3.64-.05-5.41-.16s-4.18-.38-7.19-.81c-.64-.1-1.24-.19-1.78-.24s-1-.08-1.45-.08q-6,0-6,7.27,0,6.14,7.75,6.13c1.18,0,2.45,0,3.79-.08l5.33-.16c2.21,0,5-.19,8.32-.4l12.76-.81q2.74-.17,5.49-.24c1.83-.06,3.5-.08,5-.08q9.21,0,14,5.25t4.84,14.94a28.21,28.21,0,0,1-3.63,14.05A34.85,34.85,0,0,1,284.08,160a51.21,51.21,0,0,1-15.19,7.35,64.79,64.79,0,0,1-19,2.66,66.68,66.68,0,0,1-14.46-1.45,43.45,43.45,0,0,1-11.3-4,22.43,22.43,0,0,1-7.43-6.13,12.65,12.65,0,0,1-2.67-7.76,12.88,12.88,0,0,1,1.94-6.86,13.49,13.49,0,0,1,5.33-4.93,27.8,27.8,0,0,1,4.76-2c1.56-.48,3.91-1.15,7-2a54.49,54.49,0,0,1-5.57-1.7,16.26,16.26,0,0,1-3.64-2,14.67,14.67,0,0,1-4.6-5.57,16.91,16.91,0,0,1-1.7-7.51,16.19,16.19,0,0,1,3.88-11.15q3.87-4.35,13.24-8.23a25,25,0,0,1-9.93-8.48,20.46,20.46,0,0,1-3.47-11.55,22.42,22.42,0,0,1,3.47-12,25.62,25.62,0,0,1,9.61-9,44.64,44.64,0,0,1,10.34-4.36A38.12,38.12,0,0,1,255,51.61a34.56,34.56,0,0,1,12,2.18A55.12,55.12,0,0,1,279.23,60.33Zm-42,75.59a18.06,18.06,0,0,0-3.55,10.66q0,7.74,6.94,12t19.7,4.28a38.68,38.68,0,0,0,10.83-1.46,28.49,28.49,0,0,0,8.64-4,20.55,20.55,0,0,0,5.73-6.06,14.27,14.27,0,0,0,2.1-7.51q0-8.88-9.37-8.88c-.86,0-2.07,0-3.63.08s-3.21.13-4.93.24l-7.43.32-7,.33q-3.31.15-6.06.24c-1.83.05-3.29.08-4.36.08h-3.72A35.31,35.31,0,0,1,237.24,135.92Zm17.6-80.11c-2.8,0-5,1.45-6.62,4.36s-2.42,6.94-2.42,12.11.16,9.72.48,13.33a37.08,37.08,0,0,0,1.62,8.64,9.91,9.91,0,0,0,3,4.68,7.21,7.21,0,0,0,4.6,1.45q4.68,0,6.78-5.08t2.1-16.72q0-12-2.26-17.36T254.84,55.81Z"/>
    <path class="cls-1" d="M346.26,67.6a28,28,0,0,1,8.56-11.55,19.25,19.25,0,0,1,12.11-4.28,12.62,12.62,0,0,1,9,3.55A11.6,11.6,0,0,1,379.69,64a11.91,11.91,0,0,1-3.31,8.4,10.56,10.56,0,0,1-8,3.56,9.49,9.49,0,0,1-6.46-2.26,7.23,7.23,0,0,1-2.58-5.66,7.7,7.7,0,0,1,.16-1.69,24.69,24.69,0,0,1,.81-2.51,2.89,2.89,0,0,0,.16-1.13,1.89,1.89,0,0,0-.73-1.45,2.47,2.47,0,0,0-1.69-.65,4.7,4.7,0,0,0-3,1.29,14.45,14.45,0,0,0-2.83,3.32,20.68,20.68,0,0,0-2.18,4.68,26.91,26.91,0,0,0-1.21,5.41,37.7,37.7,0,0,0-.24,4.2c-.06,2.15-.08,4.74-.08,7.75v26.33a19.58,19.58,0,0,0,.16,3.55q.65,3.24,5,3.39h5.16a2.63,2.63,0,0,1,1.62.57,3,3,0,0,1,.32,1.69c0,1.73,0,2.75-.08,3.07s-.35.49-.89.49a7.22,7.22,0,0,1-1.61-.16c-1.51-.22-3.39-.38-5.66-.49s-4.46-.16-6.62-.16q-12.92,0-21.24.32T313.47,127a2.24,2.24,0,0,1-1,.16c-.65,0-1-.54-1-1.61a9.47,9.47,0,0,1,.32-3.39c.22-.33,1-.54,2.43-.65q5.81-.15,7.67-1.13c1.24-.64,1.86-2,1.86-4v-2.1c0-1.29-.06-2.85-.17-4.68v-4.36l.17-37.31a12.27,12.27,0,0,0-.49-4.2,4.18,4.18,0,0,0-2.26-1.94,12.88,12.88,0,0,0-3.71-.8,47.56,47.56,0,0,0-5.66-.33,1.86,1.86,0,0,1-2.1-2.1,10.07,10.07,0,0,1,.25-2.9,1,1,0,0,1,1.05-.65,5.5,5.5,0,0,1,.8.08c.33.06,1.29.19,2.91.4.86.11,1.86.19,3,.25s2.39.08,3.79.08c2.37,0,4.5-.06,6.38-.16a34.26,34.26,0,0,0,5.41-.73,39.35,39.35,0,0,0,5.41-1.62c1.89-.69,4.12-1.58,6.71-2.66.43,1.51.72,2.72.88,3.63a17.49,17.49,0,0,1,.25,3.15c0,.65,0,1.62-.08,2.91s-.14,2.8-.25,4.52l-.16,2.75Z"/>
    <path class="cls-1" d="M504.21,67.6a28,28,0,0,1,8.56-11.55,19.25,19.25,0,0,1,12.11-4.28,12.62,12.62,0,0,1,9,3.55A11.6,11.6,0,0,1,537.64,64a11.91,11.91,0,0,1-3.31,8.4,10.56,10.56,0,0,1-8,3.56,9.49,9.49,0,0,1-6.46-2.26,7.23,7.23,0,0,1-2.58-5.66,7.7,7.7,0,0,1,.16-1.69,24.69,24.69,0,0,1,.81-2.51,2.89,2.89,0,0,0,.16-1.13,1.89,1.89,0,0,0-.73-1.45,2.47,2.47,0,0,0-1.69-.65,4.7,4.7,0,0,0-3,1.29,14.45,14.45,0,0,0-2.83,3.32A20.68,20.68,0,0,0,508,69.94a26.91,26.91,0,0,0-1.21,5.41,37.7,37.7,0,0,0-.24,4.2c-.06,2.15-.08,4.74-.08,7.75v26.33a19.58,19.58,0,0,0,.16,3.55q.64,3.24,5,3.39h5.16a2.63,2.63,0,0,1,1.62.57,3,3,0,0,1,.32,1.69c0,1.73,0,2.75-.08,3.07s-.35.49-.89.49a7.22,7.22,0,0,1-1.61-.16c-1.51-.22-3.39-.38-5.66-.49s-4.46-.16-6.62-.16q-12.92,0-21.24.32T471.42,127a2.24,2.24,0,0,1-1,.16c-.65,0-1-.54-1-1.61a9.47,9.47,0,0,1,.32-3.39c.22-.33,1-.54,2.43-.65q5.81-.15,7.67-1.13c1.24-.64,1.86-2,1.86-4v-2.1c0-1.29-.06-2.85-.17-4.68v-4.36l.17-37.31a12.27,12.27,0,0,0-.49-4.2A4.18,4.18,0,0,0,479,61.78a12.88,12.88,0,0,0-3.71-.8,47.56,47.56,0,0,0-5.66-.33,1.86,1.86,0,0,1-2.1-2.1,10.07,10.07,0,0,1,.25-2.9,1,1,0,0,1,1-.65,5.5,5.5,0,0,1,.8.08c.33.06,1.3.19,2.91.4.86.11,1.86.19,3,.25s2.39.08,3.79.08c2.37,0,4.5-.06,6.38-.16a34.26,34.26,0,0,0,5.41-.73,39.35,39.35,0,0,0,5.41-1.62c1.89-.69,4.12-1.58,6.71-2.66.43,1.51.72,2.72.88,3.63a17.49,17.49,0,0,1,.25,3.15c0,.65,0,1.62-.08,2.91s-.14,2.8-.25,4.52l-.16,2.75Z"/>
    <path class="cls-1" d="M451.31,61.18a44.1,44.1,0,0,1,8.55,14.21,41.44,41.44,0,0,1,2.59,15.26,38.43,38.43,0,0,1-3.32,14.67,37.27,37.27,0,0,1-22.19,19.89,36.69,36.69,0,0,1-14.41,1.62,39.49,39.49,0,0,1-14.22-4A40,40,0,0,1,396,113.2a48.15,48.15,0,0,1-9-14.76,43.69,43.69,0,0,1-3-15.86,39.34,39.34,0,0,1,3-15,33.64,33.64,0,0,1,9-12.48,35.33,35.33,0,0,1,13.29-7.52,36.43,36.43,0,0,1,14.61-1.37,40,40,0,0,1,14.48,4.57A46.17,46.17,0,0,1,451.31,61.18Zm-4.07,2q-3.81-4.33-10.54-2.69t-15,8.92q-4.73,4.17-8.88,8.36t-7.49,8.11A85.45,85.45,0,0,0,399.81,93,19,19,0,0,0,397,98.48q-2,6.49,2.11,11.19a9.57,9.57,0,0,0,5.82,3.54c2,.28,4.5-.3,7.41-1.72.87-.48,2-1.18,3.34-2.08s2.81-2,4.37-3.11,3.16-2.39,4.8-3.7,3.2-2.61,4.65-3.89a112.56,112.56,0,0,0,8.42-8.28q4.17-4.55,7.55-9Q453.72,70.5,447.24,63.16Z"/>
    <circle class="cls-2" cx="409.36" cy="32.55" r="5.25"/>
    <circle class="cls-2" cx="434.31" cy="32.55" r="5.25"/>
  </g>
</svg>
